inDegrees=yes
name=ik_S52_A09_T02
DataType=double
version=3
OpenSimVersion=4.3-2021-08-27-4bc7ad9
endheader
time	pelvis_tilt	pelvis_list	pelvis_rotation	pelvis_tx	pelvis_ty	pelvis_tz	hip_flexion_r	hip_adduction_r	hip_rotation_r	knee_angle_r	knee_angle_r_beta	ankle_angle_r	subtalar_angle_r	mtp_angle_r	hip_flexion_l	hip_adduction_l	hip_rotation_l	knee_angle_l	knee_angle_l_beta	ankle_angle_l	subtalar_angle_l	mtp_angle_l	lumbar_extension	lumbar_bending	lumbar_rotation	arm_flex_r	arm_add_r	arm_rot_r	elbow_flex_r	pro_sup_r	wrist_flex_r	wrist_dev_r	arm_flex_l	arm_add_l	arm_rot_l	elbow_flex_l	pro_sup_l	wrist_flex_l	wrist_dev_l
16.43999999999974	-5.403536823642641	-1.934898700898879	19.59119600338391	0	0.9399999999999999	0	37.20087616777294	-12.49230073821956	-10.52947161081553	49.55683165357866	0.8649298792114934	0	0	0	37.20087616777294	-12.49230073821956	-10.52947161081553	49.55683165357866	0.8649298792114934	0	0	0	-3.577846089485909	-2.71832920857421	5.178219069556259	62.471049100012	-3.405805987590581	1.621064268131654	51.80678862553258	121.2655929487566	0	-1.505050896556459e-52	55.84655654378443	-20.40154618173775	6.516938971462801	55.19111617095876	94.48600488880386	0	-1.505050896556459e-52
16.45999999999974	-5.397328417283908	-1.930970697734654	19.60660482040419	0	0.9399999999999999	0	37.21286598799011	-12.47726584433621	-10.52753579871301	49.56229728887595	0.8650252725431444	0	0	0	37.21286598799011	-12.47726584433621	-10.52753579871301	49.56229728887595	0.8650252725431444	0	0	0	-3.573409100247812	-2.71281697028687	5.157700241141908	62.46536062014255	-3.378541030618911	1.710795317303627	51.85336133188044	121.2350597621312	0	0	55.89750453997001	-20.44668360361087	6.512400040513986	55.160726451054	94.59515707331045	0	0
16.47999999999974	-5.387334713552232	-1.92406791338108	19.5853289779315	0	0.9399999999999999	0	37.21403117915789	-12.47601575241188	-10.52736400535371	49.56285493974077	0.8650350053868121	0	0	0	37.21403117915789	-12.47601575241188	-10.52736400535371	49.56285493974077	0.8650350053868121	0	0	0	-3.561971921649912	-2.709251034146625	5.154733776768149	62.44880012054334	-3.339088873361839	1.752669731130406	51.85508522336109	121.2201380192545	0	0	55.91871904130623	-20.47162263214496	6.595882375116622	55.16696745311857	94.78514254400302	0	0
16.49999999999974	-5.383777546163755	-1.928585318597797	19.56282250002923	0	0.9399999999999999	0	37.21521633778739	-12.47476521965404	-10.52719114218286	49.56343085690381	0.8650450570375261	0	0	0	37.21521633778739	-12.47476521965404	-10.52719114218286	49.56343085690381	0.8650450570375261	0	0	0	-3.56001253611427	-2.715151031020708	5.163784670910654	62.4831254735513	-3.329265960258797	1.841694343948389	51.94029364147835	121.3887147796993	0	0	55.89819966581172	-20.47767764620704	6.670735296309421	55.20148770585917	94.86343071499815	0	0
16.51999999999974	-5.381602003211525	-1.935179398924061	19.58057110828308	0	0.9399999999999999	0	37.21608475361803	-12.47382800224274	-10.52706258720601	49.56384379628656	0.8650522641893662	0	0	0	37.21608475361803	-12.47382800224274	-10.52706258720601	49.56384379628656	0.8650522641893662	0	0	0	-3.560661386305675	-2.72102171622518	5.151392289594479	62.47757697640058	-3.33624250999444	1.978374531818337	52.02188023404136	121.492006311231	0	0	55.90213215550971	-20.47978641519398	6.688315857648654	55.21375748502123	94.87034860110072	0	0
16.53999999999974	-5.379227390565686	-1.937522209674777	19.61516561163612	0	0.9399999999999999	0	37.24958953311438	-12.44487930320998	-10.522654034196	49.58017153860507	0.8653372370522413	0	0	0	37.24958953311438	-12.44487930320998	-10.522654034196	49.58017153860507	0.8653372370522413	0	0	0	-3.56555289637526	-2.716559262688872	5.148598861380855	62.48595517837531	-3.370843213345995	1.979182974444453	52.23443650150472	121.5031451491698	0	0	55.86792901438248	-20.47943260556456	6.778052335706954	55.25695291300068	94.83162596366205	0	0
16.55999999999974	-5.372136648042267	-1.943684097505555	19.66672763018898	0	0.9399999999999999	0	37.25329547913814	-12.44085408592303	-10.52210260391914	49.5819121960787	0.8653676172563055	0	0	0	37.25329547913814	-12.44085408592303	-10.52210260391914	49.5819121960787	0.8653676172563055	0	0	0	-3.562288587641483	-2.722232889711715	5.125087660815143	62.41734513571071	-3.36111668558588	1.976347055352407	52.574630842912	121.0313757963233	0	0	55.88522786756823	-20.46804369274217	6.82317350110751	55.18718633263646	94.862672866721	0	0
16.57999999999974	-5.384284229783495	-1.937479748626843	19.7620250628041	0	0.9399999999999999	0	37.25775169819579	-12.43602320428784	-10.5214402426352	49.58400726735111	0.8654041831480731	0	0	0	37.25775169819579	-12.43602320428784	-10.5214402426352	49.58400726735111	0.8654041831480731	0	0	0	-3.576595144058279	-2.705752681232235	5.050740026445043	62.49052480721832	-3.149320702855089	1.893498500073148	53.14409461747286	117.0924162368537	0	0	56.06026715393035	-20.27740993376138	7.03491085166747	54.91310279710249	94.78450293659168	0	0
16.59999999999973	-5.369302007413714	-1.937790431807727	19.76716931317771	0	0.9399999999999999	0	37.26211679368589	-12.43131198148697	-10.52079316672043	49.58606621340443	0.8654401185358245	0	0	0	37.26211679368589	-12.43131198148697	-10.52079316672043	49.58606621340443	0.8654401185358245	0	0	0	-3.564116017320111	-2.709674781565167	5.04459364586818	62.47578380983042	-3.060382401020877	1.842959501672557	54.08138409005887	114.5663865400785	0	0	56.08034495302721	-20.13277021665133	7.235276793460714	54.77971544676092	94.55950295617131	0	0
16.61999999999973	-5.37544663040929	-1.90605822414332	19.65756413847471	0	0.9399999999999999	0	37.26462772181568	-12.42862134732288	-10.52042260218416	49.5872573085166	0.8654609070672362	0	0	0	37.26462772181568	-12.42862134732288	-10.52042260218416	49.5872573085166	0.8654609070672362	0	0	0	-3.556265874332344	-2.685007172031966	5.139869497048582	62.61368366909254	-3.070218075849125	1.674060805809543	54.93385569030794	116.1012780226194	0	0	56.02707892950624	-20.04868307525831	7.223799235869338	54.77946299521632	94.40903206361985	0	0
16.63999999999973	-5.353026007130316	-1.872477354853805	19.64016759103485	0	0.9399999999999999	0	37.26735000039827	-12.42567468876429	-10.52001815766409	49.58853573121767	0.8654832197526021	0	0	0	37.26735000039827	-12.42567468876429	-10.52001815766409	49.58853573121767	0.8654832197526021	0	0	0	-3.524503541753258	-2.659625701744389	5.12572640169199	62.98825079726193	-3.092984797523148	1.203842478761221	55.16863079935564	116.8654499764485	0	0	55.86372267222347	-20.15961726515008	6.751708470619958	54.87427868681433	94.61343963791751	0	0
16.65999999999973	-5.31354007024907	-1.823097456646727	19.57761813927869	0	0.9399999999999999	0	37.27106439876908	-12.42163807659094	-10.51946476663194	49.59027169107776	0.8655135179678433	0	0	0	37.27106439876908	-12.42163807659094	-10.51946476663194	49.59027169107776	0.8655135179678433	0	0	0	-3.470109625460478	-2.628720333162098	5.161121300631252	63.3669601051478	-3.196900579431507	0.7130466055695123	55.11229578828465	117.4481507599256	0	0	55.66597063588362	-20.18804224237661	6.417685424207186	54.95006669555005	94.77267264349456	0	0
16.67999999999973	-5.283926825276816	-1.788992003108442	19.54914016215449	0	0.9399999999999999	0	37.27425341994849	-12.41817797160804	-10.51899005618958	49.59176302895043	0.865539546723981	0	0	0	37.27425341994849	-12.41817797160804	-10.51899005618958	49.59176302895043	0.865539546723981	0	0	0	-3.430025627201988	-2.608894578263077	5.201000578476325	63.70119167430462	-3.388211833495181	0.4719664103809071	54.76021010895717	117.4083446610761	0	0	55.56915534347389	-20.205699185197	6.281591800997567	54.9891212620432	94.7772688398171	0	0
16.69999999999973	-5.265798378124736	-1.788898080966622	19.51609724894574	0	0.9399999999999999	0	37.27651472116527	-12.41572721437437	-10.51865364455112	49.59282094621099	0.8655580108633915	0	0	0	37.27651472116527	-12.41572721437437	-10.51865364455112	49.59282094621099	0.8655580108633915	0	0	0	-3.411827392942104	-2.617753883719115	5.247350739553225	63.97839130053421	-3.698119185145094	0.3121016195667338	54.79086317954381	117.3803478426425	0	0	55.59586897279605	-20.22860004958156	6.287772540197686	54.98589321818044	94.77440767945475	0	0
16.71999999999973	-5.207293679847011	-1.780083397465279	19.52228463275515	0	0.9399999999999999	0	37.27839400588346	-12.41369770250475	-10.5183746781657	49.59370261122564	0.8655733988207966	0	0	0	37.27839400588346	-12.41369770250475	-10.5183746781657	49.59370261122564	0.8655733988207966	0	0	0	-3.352239986792612	-2.63255778567154	5.30118782350535	64.09467507189912	-4.010825343224963	0.360529308886342	54.69211189182315	117.083080995519	0	0	55.56899074847731	-20.18360767753887	6.394049302395025	54.94548611363336	94.79543753782298	0	0
16.73999999999973	-5.155092670534056	-1.79382281760098	19.45529780788396	0	0.9399999999999999	0	37.28084347504056	-12.41104748139824	-10.51801059076714	49.59484914332186	0.8655934095808555	0	0	0	37.28084347504056	-12.41104748139824	-10.51801059076714	49.59484914332186	0.8655934095808555	0	0	0	-3.305479152338865	-2.668356582576479	5.385268203818599	64.28915376485988	-4.498272060416075	0.09919566738784162	54.49814264616889	116.2388823177014	0	0	55.51251586951575	-20.21617055131854	6.464431469480034	54.97041500371058	94.86673278195447	0	0
16.75999999999973	-5.130440636923283	-1.802720048213612	19.41380669094564	0	0.9399999999999999	0	37.28285335372052	-12.40888445056298	-10.51771284213315	49.59579411745985	0.8656099024909096	0	0	0	37.28285335372052	-12.40888445056298	-10.51771284213315	49.59579411745985	0.8656099024909096	0	0	0	-3.284355419971914	-2.687351758103318	5.425338663477106	64.26535938110271	-4.587932212415336	-0.09416319346745018	54.23640781717292	115.8182672263039	0	0	55.52014433352937	-20.21340088350154	6.517073661351121	54.94184969643805	94.8088855043715	0	0
16.77999999999973	-5.066619648229428	-1.778555174455561	19.34402152858514	0	0.9399999999999999	0	37.28511096272638	-12.40644208192262	-10.5173772169628	49.59684973088741	0.8656283264208489	0	0	0	37.28511096272638	-12.40644208192262	-10.5173772169628	49.59684973088741	0.8656283264208489	0	0	0	-3.214315346903373	-2.690178871272487	5.495444816930424	64.37361780395372	-5.068922834202874	-0.3617551558342117	53.7255316005163	115.4705287578178	0	0	55.38618879618578	-20.2238961184315	6.519308526465455	54.95504055661591	94.72467349118934	0	0
16.79999999999973	-5.05765360093068	-1.773485178436486	19.16537068664973	0	0.9399999999999999	0	37.28745850793187	-12.40390169635596	-10.51702811100128	49.59794639192015	0.8656474667666484	0	0	0	37.28745850793187	-12.40390169635596	-10.51702811100128	49.59794639192015	0.8656474667666484	0	0	0	-3.200529631315538	-2.699890380577844	5.667917132006035	64.63084649837347	-6.13332616994512	-1.574168426507931	53.14851700332112	115.4962209017128	0	0	55.33793134807162	-20.16589596699802	6.476862999655052	54.9851599570127	94.82679418437316	0	0
16.81999999999973	-5.041431275352231	-1.775838595566279	19.07609769208552	0	0.9399999999999999	0	37.29197275976976	-12.3990372811323	-10.51635851145651	49.60006176516939	0.8656843869947564	0	0	0	37.29197275976976	-12.3990372811323	-10.51635851145651	49.60006176516939	0.8656843869947564	0	0	0	-3.184873578252633	-2.710527177563342	5.727564175815512	64.65528996884572	-6.182381244961895	-1.782913295950697	52.35234879922453	116.1685059457144	0	0	55.35795591037265	-20.18312793771266	6.394841577617044	54.92940000264554	94.94166432152804	0	0
16.83999999999973	-5.002004603684516	-1.770474085088362	18.90148527909632	0	0.9399999999999999	0	37.32952969315679	-12.37005463177351	-10.51183294758473	49.62271118346895	0.8660796939177451	0	0	0	37.32952969315679	-12.37005463177351	-10.51183294758473	49.62271118346895	0.8660796939177451	0	0	0	-3.149130627518706	-2.719372780407761	5.888843858501152	64.7267998185778	-7.571595146480504	-3.861861700136591	50.57331307711027	118.6498986199564	0	0	55.30376325486665	-20.19662646150647	6.146954980213238	54.88301340515547	95.2167440827065	0	0
16.85999999999973	-4.984323709286079	-1.76582472334815	18.77211423267986	0	0.9399999999999999	0	37.33163066220099	-12.36780313820755	-10.51152209586581	49.62369400597316	0.8660968474064064	0	0	0	37.33163066220099	-12.36780313820755	-10.51152209586581	49.62369400597316	0.8660968474064064	0	0	0	-3.129300610805314	-2.724884370723784	5.958448368345757	64.66334445501465	-8.172567334520279	-4.526973568637366	50.67137502481803	118.6676058514893	0	0	55.27192291848426	-20.26325965264138	6.116550616440283	54.91188402439973	95.21755294812648	0	0
